<svg width="54" height="54" viewBox="0 0 54 54" fill="none" xmlns="http://www.w3.org/2000/svg">
<path fill-rule="evenodd" clip-rule="evenodd" d="M27.002 53.087C41.4094 53.087 53.089 41.4075 53.089 27C53.089 12.5926 41.4094 0.913086 27.002 0.913086C12.5946 0.913086 0.915039 12.5926 0.915039 27C0.915039 41.4075 12.5946 53.087 27.002 53.087Z" stroke="white"/>
<path fill-rule="evenodd" clip-rule="evenodd" d="M29.4255 16.2291C29.816 15.8386 30.4492 15.8386 30.8397 16.2291L32.3689 17.7582C32.7591 18.1485 32.7594 18.781 32.3696 19.1717L23.5169 28.0437L32.3696 36.9157C32.7594 37.3064 32.7591 37.939 32.3689 38.3292L30.8397 39.8583C30.4492 40.2489 29.816 40.2489 29.4255 39.8583L17.6108 28.0437L29.4255 16.2291Z" fill="white"/>
<mask id="mask0_2621_95689" style="mask-type:alpha" maskUnits="userSpaceOnUse" x="17" y="15" width="16" height="26">
<path fill-rule="evenodd" clip-rule="evenodd" d="M29.4255 16.2291C29.816 15.8386 30.4492 15.8386 30.8397 16.2291L32.3689 17.7582C32.7591 18.1485 32.7594 18.781 32.3696 19.1717L23.5169 28.0437L32.3696 36.9157C32.7594 37.3064 32.7591 37.939 32.3689 38.3292L30.8397 39.8583C30.4492 40.2489 29.816 40.2489 29.4255 39.8583L17.6108 28.0437L29.4255 16.2291Z" fill="white"/>
</mask>
<g mask="url(#mask0_2621_95689)">
<rect x="0.915039" y="3" width="50.087" height="50.087" fill="white"/>
</g>
</svg>
