<?xml version="1.0" encoding="UTF-8" standalone="no"?>
<!-- Created with Inkscape (http://www.inkscape.org/) -->

<svg
   width="80"
   height="80"
   viewBox="0 0 21.166666 21.166667"
   version="1.1"
   id="svg5"
   sodipodi:docname="backward.svg"
   inkscape:version="1.1.2 (1:1.1+202202050950+0a00cf5339)"
   xmlns:inkscape="http://www.inkscape.org/namespaces/inkscape"
   xmlns:sodipodi="http://sodipodi.sourceforge.net/DTD/sodipodi-0.dtd"
   xmlns="http://www.w3.org/2000/svg"
   xmlns:svg="http://www.w3.org/2000/svg">
  <sodipodi:namedview
     id="namedview8"
     pagecolor="#ffffff"
     bordercolor="#666666"
     borderopacity="1.0"
     inkscape:pageshadow="2"
     inkscape:pageopacity="0.0"
     inkscape:pagecheckerboard="0"
     showgrid="false"
     inkscape:zoom="10.55"
     inkscape:cx="39.952607"
     inkscape:cy="40.047393"
     inkscape:window-width="1848"
     inkscape:window-height="1016"
     inkscape:window-x="72"
     inkscape:window-y="27"
     inkscape:window-maximized="1"
     inkscape:current-layer="svg5" />
  <defs
     id="defs2" />
  <path
     style="fill:#424b5a;stroke-width:0.0848691;fill-opacity:1"
     d="M 9.3482232,20.753351 C 6.5355804,20.343128 4.1471944,18.610321 2.8684217,16.052162 2.4638185,15.242762 2.1555582,14.170963 2.1405365,13.521359 2.1274332,12.954704 2.13381,12.936434 2.4441646,12.65145 2.7095594,12.407751 2.824948,12.360352 3.1528222,12.360352 c 0.5928176,0 0.8964425,0.342083 1.0922518,1.230603 0.4399059,1.996149 1.6813592,3.587424 3.4768682,4.456596 2.6348958,1.275498 5.5057578,0.735271 7.5126648,-1.413707 0.668488,-0.71581 1.254699,-1.78359 1.507469,-2.745847 0.199115,-0.758004 0.195622,-2.392005 -0.0067,-3.140158 C 16.021438,8.1079883 13.792379,6.221702 11.059641,5.9448847 l -0.572868,-0.05803 v 1.6181745 c 0,1.7711924 -0.02993,1.8849038 -0.4962301,1.8849038 -0.1870864,0 -0.6345604,-0.4061627 -2.4212526,-2.1977013 C 5.6356373,5.2533307 5.3845133,4.9709963 5.4367679,4.794678 5.5148692,4.53115 9.6246523,0.40284875 9.8720907,0.33936929 c 0.1109399,-0.0284519 0.2806183,0.009206 0.4031283,0.0894679 l 0.211554,0.13861554 V 2.1728094 3.7781662 l 0.360695,0.044615 c 0.198383,0.024539 0.589454,0.068965 0.869049,0.098722 0.775213,0.082504 1.860955,0.4276123 2.686111,0.8537875 4.802615,2.4804527 6.122455,8.6867813 2.74503,12.9080413 -1.826553,2.282909 -4.900403,3.492842 -7.7994252,3.070019 z"
     id="path854" />
  <path
     id="path1070"
     style="fill:#424b5a;stroke-width:0.0848691;fill-opacity:1"
     d="m 11.673993,15.394426 c -0.284342,-0.144261 -0.428828,-0.294138 -0.59085,-0.612902 -0.196812,-0.387209 -0.214466,-0.512974 -0.214466,-1.527645 0,-1.009673 0.01841,-1.142553 0.212173,-1.530044 0.360579,-0.721161 1.158672,-0.989369 1.917952,-0.644546 0.665739,0.302344 0.881534,0.846606 0.882256,2.225172 6.41e-4,1.011414 -0.12644,1.501829 -0.485998,1.877125 -0.411382,0.429392 -1.121207,0.517173 -1.721067,0.21284 z m 1.089265,-0.697337 c 0.297041,-0.280968 0.381685,-2.154234 0.120928,-2.676213 -0.129663,-0.259557 -0.193277,-0.300303 -0.504089,-0.322895 -0.308839,-0.02245 -0.375924,0.005 -0.509215,0.20844 -0.128383,0.195939 -0.153412,0.415522 -0.152896,1.341325 6.42e-4,1.177956 0.06783,1.436801 0.408059,1.57243 0.210467,0.0839 0.471743,0.03343 0.637213,-0.123087 z M 8.4499038,13.764752 v -1.735757 l -0.3606942,0.109666 c -0.1983809,0.06032 -0.4489814,0.138196 -0.5568891,0.173063 -0.1865613,0.06028 -0.194897,0.04568 -0.1697384,-0.297411 l 0.026457,-0.3608 0.8911288,-0.32107 c 0.4901166,-0.176587 0.919769,-0.323078 0.9547773,-0.325532 0.035008,-0.0026 0.063653,1.007601 0.063653,2.244569 v 2.249033 H 8.8742507 8.4499038 Z" />
</svg>
