<?xml version="1.0" encoding="UTF-8" standalone="no"?>
<!-- Created with Inkscape (http://www.inkscape.org/) -->

<svg
   width="80"
   height="80"
   viewBox="0 0 21.166666 21.166666"
   version="1.1"
   id="svg5"
   xmlns="http://www.w3.org/2000/svg"
   xmlns:svg="http://www.w3.org/2000/svg">
  <defs
     id="defs2" />
  <path
     style="fill:#424b5a;fill-opacity:1;stroke-width:0.166855"
     d="M 8.8711287,21.042508 C 6.6327568,20.635907 4.1536052,19.332156 2.817952,17.859165 1.7851985,16.720218 0.90859469,15.224422 0.44219533,13.805281 0.06799585,12.66663 -4.0562681e-6,12.165439 -4.0562681e-6,10.544517 -4.0562681e-6,8.9235958 0.06794585,8.4224054 0.44219533,7.2837592 1.2122692,4.9406169 2.6201823,3.0908501 4.6765695,1.7204988 6.5423769,0.47714757 8.1804946,2.1040471e-6 10.583331,2.1040471e-6 c 1.634433,0 2.128022,0.067050065953 3.295511,0.4477004359529 3.24957,1.05953606 5.776482,3.58291346 6.84562,6.83603666 0.3742,1.1386462 0.4422,1.6398366 0.4422,3.2607578 0,1.620922 -0.06795,2.122113 -0.4422,3.260764 -0.770069,2.343137 -2.177987,4.192904 -4.234374,5.563255 -2.106222,1.403561 -5.274883,2.099757 -7.6189593,1.673972 z"
     id="path253" />
  <g
     id="g1328"
     transform="translate(-0.12733255,0.24176419)"
     style="fill:#ffffff">
    <rect
       style="fill:#ffffff;stroke-width:0.260488"
       id="rect1242"
       width="3.175"
       height="9.8268147"
       x="6.0764489"
       y="5.4281635" />
    <rect
       style="fill:#ffffff;stroke-width:0.260488"
       id="rect1324"
       width="3.175"
       height="9.8268147"
       x="12.169874"
       y="5.4281635" />
  </g>
</svg>
