<?xml version="1.0" encoding="UTF-8" standalone="no"?>
<!-- Created with Inkscape (http://www.inkscape.org/) -->

<svg
   width="80"
   height="80"
   viewBox="0 0 21.166666 21.166666"
   version="1.1"
   id="svg5"
   xmlns="http://www.w3.org/2000/svg"
   xmlns:svg="http://www.w3.org/2000/svg">
  <defs
     id="defs2" />
  <g
     id="layer1"
     transform="matrix(4.9999931,0,0,5.0000049,-405.12848,-384.79621)">
    <g
       id="g900">
      <path
         style="fill:#424b5a;fill-opacity:1;stroke-width:0.033371"
         d="m 82.800036,81.167664 c -0.447675,-0.08132 -0.943506,-0.34207 -1.210637,-0.636668 -0.206551,-0.227789 -0.381872,-0.526948 -0.475152,-0.810776 -0.07484,-0.22773 -0.08844,-0.327968 -0.08844,-0.652152 0,-0.324184 0.01359,-0.424422 0.08844,-0.652151 0.154015,-0.468628 0.435598,-0.838581 0.846876,-1.112651 0.373162,-0.24867 0.700786,-0.344099 1.181354,-0.344099 0.326887,0 0.425605,0.01341 0.659103,0.08954 0.649915,0.211907 1.155298,0.716582 1.369126,1.367206 0.07484,0.227729 0.08844,0.327967 0.08844,0.652151 0,0.324184 -0.01359,0.424422 -0.08844,0.652152 -0.154014,0.468627 -0.435598,0.83858 -0.846876,1.11265 -0.421245,0.280712 -1.054978,0.419951 -1.523794,0.334794 z"
         id="path253" />
      <path
         style="fill:#ffffff"
         id="path786"
         transform="matrix(-0.03529162,0,0,0.03516215,85.621086,79.519993)"
         d="M 86.581136,12.386535 64.914669,-0.12260614 43.248201,-12.63175 64.914669,-25.14089 86.581139,-37.65003 v 25.018282 z" />
    </g>
  </g>
</svg>
