<?xml version="1.0" encoding="UTF-8" standalone="no"?>
<!-- Created with Inkscape (http://www.inkscape.org/) -->

<svg
   width="80"
   height="80"
   viewBox="0 0 21.166666 21.166667"
   version="1.1"
   id="svg5"
   sodipodi:docname="forward.svg"
   inkscape:version="1.1.2 (1:1.1+202202050950+0a00cf5339)"
   xmlns:inkscape="http://www.inkscape.org/namespaces/inkscape"
   xmlns:sodipodi="http://sodipodi.sourceforge.net/DTD/sodipodi-0.dtd"
   xmlns="http://www.w3.org/2000/svg"
   xmlns:svg="http://www.w3.org/2000/svg">
  <sodipodi:namedview
     id="namedview7"
     pagecolor="#ffffff"
     bordercolor="#666666"
     borderopacity="1.0"
     inkscape:pageshadow="2"
     inkscape:pageopacity="0.0"
     inkscape:pagecheckerboard="0"
     showgrid="false"
     inkscape:zoom="10.55"
     inkscape:cx="39.952607"
     inkscape:cy="40.047393"
     inkscape:window-width="1848"
     inkscape:window-height="1016"
     inkscape:window-x="72"
     inkscape:window-y="27"
     inkscape:window-maximized="1"
     inkscape:current-layer="svg5" />
  <defs
     id="defs2" />
  <path
     style="fill:#424b5a;stroke-width:0.0848691;fill-opacity:1"
     d="m 11.818444,20.753351 c 2.812643,-0.410223 5.201029,-2.14303 6.479801,-4.701189 0.404604,-0.8094 0.712864,-1.881199 0.727886,-2.530803 0.0131,-0.566655 0.0067,-0.584925 -0.303629,-0.869909 -0.265394,-0.243699 -0.380783,-0.291098 -0.708657,-0.291098 -0.592818,0 -0.896443,0.342083 -1.092252,1.230603 -0.439906,1.996149 -1.681359,3.587424 -3.476868,4.456596 C 10.809829,19.323049 7.938967,18.782822 5.93206,16.633844 5.263572,15.918034 4.677361,14.850254 4.424591,13.887997 4.225476,13.129993 4.228969,11.495992 4.431291,10.747839 5.145229,8.1079883 7.374288,6.221702 10.107026,5.9448847 l 0.572868,-0.05803 v 1.6181745 c 0,1.7711924 0.02993,1.8849038 0.49623,1.8849038 0.187087,0 0.634561,-0.4061627 2.421253,-2.1977013 1.933653,-1.938901 2.184777,-2.2212354 2.132522,-2.3975537 -0.0781,-0.263528 -4.187884,-4.39182925 -4.435323,-4.45530871 -0.11094,-0.0284519 -0.280618,0.009206 -0.403128,0.0894679 L 10.679894,0.56745273 V 2.1728094 3.7781662 l -0.360695,0.044615 C 10.120816,3.8473202 9.729745,3.8917462 9.45015,3.9215032 8.674937,4.0040072 7.589195,4.3491155 6.764039,4.7752907 1.961424,7.2557434 0.64158402,13.462072 4.019009,17.683332 c 1.826553,2.282909 4.900403,3.492842 7.799425,3.070019 z"
     id="path854" />
  <path
     id="path1070"
     style="fill:#424b5a;stroke-width:0.0848691;fill-opacity:1"
     d="m 11.673993,15.394426 c -0.284342,-0.144261 -0.428828,-0.294138 -0.59085,-0.612902 -0.196812,-0.387209 -0.214466,-0.512974 -0.214466,-1.527645 0,-1.009673 0.01841,-1.142553 0.212173,-1.530044 0.360579,-0.721161 1.158672,-0.989369 1.917952,-0.644546 0.665739,0.302344 0.881534,0.846606 0.882256,2.225172 6.41e-4,1.011414 -0.12644,1.501829 -0.485998,1.877125 -0.411382,0.429392 -1.121207,0.517173 -1.721067,0.21284 z m 1.089265,-0.697337 c 0.297041,-0.280968 0.381685,-2.154234 0.120928,-2.676213 -0.129663,-0.259557 -0.193277,-0.300303 -0.504089,-0.322895 -0.308839,-0.02245 -0.375924,0.005 -0.509215,0.20844 -0.128383,0.195939 -0.153412,0.415522 -0.152896,1.341325 6.42e-4,1.177956 0.06783,1.436801 0.408059,1.57243 0.210467,0.0839 0.471743,0.03343 0.637213,-0.123087 z M 8.4499038,13.764752 v -1.735757 l -0.3606942,0.109666 c -0.1983809,0.06032 -0.4489814,0.138196 -0.5568891,0.173063 -0.1865613,0.06028 -0.194897,0.04568 -0.1697384,-0.297411 l 0.026457,-0.3608 0.8911288,-0.32107 c 0.4901166,-0.176587 0.919769,-0.323078 0.9547773,-0.325532 0.035008,-0.0026 0.063653,1.007601 0.063653,2.244569 v 2.249033 H 8.8742507 8.4499038 Z" />
</svg>
