<svg width="100" height="100" viewBox="0 0 100 100" fill="none" xmlns="http://www.w3.org/2000/svg">
<path fill-rule="evenodd" clip-rule="evenodd" d="M12.5 14.5C12.5 13.3954 13.3954 12.5 14.5 12.5H85.5C86.6046 12.5 87.5 13.3954 87.5 14.5V85.5C87.5 86.6046 86.6046 87.5 85.5 87.5H14.5C13.3954 87.5 12.5 86.6046 12.5 85.5V14.5Z" stroke="#BDBDBD" stroke-width="2" stroke-linecap="round" stroke-linejoin="round"/>
<path fill-rule="evenodd" clip-rule="evenodd" d="M35.416 41.6665C38.8678 41.6665 41.666 38.8683 41.666 35.4165C41.666 31.9647 38.8678 29.1665 35.416 29.1665C31.9642 29.1665 29.166 31.9647 29.166 35.4165C29.166 38.8683 31.9642 41.6665 35.416 41.6665Z" stroke="#BDBDBD" stroke-width="2" stroke-linecap="round" stroke-linejoin="round"/>
<path d="M87.5007 62.4998L66.6673 41.6665L20.834 87.4998" stroke="#BDBDBD" stroke-width="2" stroke-linecap="round" stroke-linejoin="round"/>
</svg>
