<?xml version="1.0" encoding="UTF-8" standalone="no"?>
<svg
   width="44"
   height="44"
   viewBox="0 0 44 44"
   fill="none"
   version="1.1"
   id="svg17"
   sodipodi:docname="mute.svg"
   inkscape:version="1.2 (1:1.2.1+202207142221+cd75a1ee6d)"
   xmlns:inkscape="http://www.inkscape.org/namespaces/inkscape"
   xmlns:sodipodi="http://sodipodi.sourceforge.net/DTD/sodipodi-0.dtd"
   xmlns="http://www.w3.org/2000/svg"
   xmlns:svg="http://www.w3.org/2000/svg">
  <defs
     id="defs21">
    <mask
       maskUnits="userSpaceOnUse"
       id="mask311">
      <g
         id="g317">
        <path
           fill-rule="evenodd"
           clip-rule="evenodd"
           d="m 22.9317,30.9463 -5.0947,-2.6784 -2.3623,-2e-4 c -1.4232,0 -2.5616,-1.1644 -2.5616,-2.6201 v -4.367 c 0,-1.4556 1.1384,-2.62 2.5616,-2.62 h 2.3623 l 5.0947,-2.6784 c 0.4557,-0.2331 0.9679,-0.2038 1.3948,0.0582 0.4271,0.291 0.6831,0.7279 0.6831,1.2517 v 12.3731 c 0,0.524 -0.2563,0.9899 -0.6831,1.2518 -0.2279,0.1457 -0.4838,0.2039 -0.7401,0.2039 -0.2278,0 -0.4553,-0.0582 -0.6547,-0.1746 z M 23.302,29.1704 V 17.758 l -4.5541,2.3871 -3e-4,6.638 z m -8.6813,-7.8896 v 4.367 c 0,0.4946 0.3699,0.8733 0.854,0.8733 h 1.5656 v -6.1139 h -1.5656 c -0.4838,0 -0.854,0.3785 -0.854,0.8736 z"
           fill="#ffffff"
           id="path313" />
        <path
           d="m 30.5881,20.9605 c 0.3133,-0.3493 0.854,-0.3493 1.1958,0 0.3413,0.3494 0.3413,0.8735 0.0281,1.2229 l -1.5368,1.5721 1.509,1.5718 c 0.3414,0.3203 0.3414,0.8734 0,1.2227 -0.1712,0.1746 -0.3987,0.262 -0.598,0.262 -0.1994,0 -0.4268,-0.0874 -0.5977,-0.262 l -1.5368,-1.572 -1.5371,1.572 c -0.1709,0.1746 -0.3983,0.262 -0.5977,0.262 -0.1993,0 -0.4272,-0.0874 -0.598,-0.262 -0.3414,-0.3202 -0.3414,-0.8735 0,-1.2227 l 1.5371,-1.572 -1.5371,-1.5721 c -0.3414,-0.3202 -0.3414,-0.8733 0,-1.2227 0.1172,-0.1309 0.2661,-0.2127 0.425,-0.2455 0.265,-0.0549 0.5568,0.027 0.7707,0.2455 l 1.5368,1.5721 z"
           fill="#ffffff"
           id="path315" />
      </g>
    </mask>
  </defs>
  <sodipodi:namedview
     id="namedview19"
     pagecolor="#ffffff"
     bordercolor="#666666"
     borderopacity="1.0"
     inkscape:showpageshadow="2"
     inkscape:pageopacity="0.0"
     inkscape:pagecheckerboard="0"
     inkscape:deskcolor="#d1d1d1"
     showgrid="false"
     inkscape:zoom="18.477273"
     inkscape:cx="21.97294"
     inkscape:cy="22"
     inkscape:window-width="1848"
     inkscape:window-height="1016"
     inkscape:window-x="72"
     inkscape:window-y="27"
     inkscape:window-maximized="1"
     inkscape:current-layer="svg17" />
  <g
     id="g384"
     transform="matrix(0.95454545,0,0,0.9550208,1.0000001,0.20026365)">
    <rect
       y="0.83740199"
       width="44"
       height="43.9781"
       rx="21.989"
       fill="#000000"
       fill-opacity="0.5"
       id="rect2"
       x="0" />
    <path
       fill-rule="evenodd"
       clip-rule="evenodd"
       d="m 22.9317,30.9463 -5.0947,-2.6784 -2.3623,-2e-4 c -1.4232,0 -2.5616,-1.1644 -2.5616,-2.6201 v -4.367 c 0,-1.4556 1.1384,-2.62 2.5616,-2.62 h 2.3623 l 5.0947,-2.6784 c 0.4557,-0.2331 0.9679,-0.2038 1.3948,0.0582 0.4271,0.291 0.6831,0.7279 0.6831,1.2517 v 12.3731 c 0,0.524 -0.2563,0.9899 -0.6831,1.2518 -0.2279,0.1457 -0.4838,0.2039 -0.7401,0.2039 -0.2278,0 -0.4553,-0.0582 -0.6547,-0.1746 z M 23.302,29.1704 V 17.758 l -4.5541,2.3871 -3e-4,6.638 z m -8.6813,-7.8896 v 4.367 c 0,0.4946 0.3699,0.8733 0.854,0.8733 h 1.5656 v -6.1139 h -1.5656 c -0.4838,0 -0.854,0.3785 -0.854,0.8736 z"
       fill="#722C9E"
       id="path4"
       style="fill:#f2f5f7;fill-opacity:1" />
    <path
       d="m 12.388235,20.528284 v 4 c 0,0.55 0.45,1 1,1 h 3 l 3.29,3.29 c 0.63,0.63 1.71,0.18 1.71,-0.71 v -11.17 c 0,-0.89 -1.08,-1.34 -1.71,-0.71 l -3.29,3.3 h -3 c -0.55,0 -1,0.45 -1,1 z m 13.5,2 c 0,-1.77 -1.02,-3.29 -2.5,-4.03 v 8.05 c 1.48,-0.73 2.5,-2.25 2.5,-4.02 z m -2.5,-7.55 v 0.2 c 0,0.38 0.25,0.71 0.6,0.85 2.58,1.03 4.4,3.56 4.4,6.5 0,2.94 -1.82,5.47 -4.4,6.5 -0.36,0.14 -0.6,0.47 -0.6,0.85 v 0.2 c 0,0.63 0.63,1.07 1.21,0.85 3.39,-1.29 5.79,-4.56 5.79,-8.4 0,-3.84 -2.4,-7.11 -5.79,-8.4 -0.58,-0.23 -1.21,0.22 -1.21,0.85 z"
       id="path319" />
    <path
       style="fill:#f2f5f7;stroke-width:0.93466;fill-opacity:1"
       d="m 26.06285,16.975991 v 0.174717 c 0,0.331965 0.25,0.620249 0.6,0.742552 2.58,0.899797 4.4,3.10998 4.4,5.678334 0,2.568354 -1.82,4.778536 -4.4,5.678334 -0.36,0.122302 -0.6,0.410587 -0.6,0.742551 v 0.174718 c 0,0.550362 0.63,0.934741 1.21,0.742551 3.39,-1.12693 5.79,-3.983569 5.79,-7.338154 0,-3.354585 -2.4,-6.211224 -5.79,-7.338155 -0.58,-0.200926 -1.21,0.19219 -1.21,0.742552 z"
       id="path475" />
    <path
       style="fill:#f2f5f7;stroke-width:0.873595;fill-opacity:1"
       d="m 29.043285,23.570639 c 0,-1.350809 -1.02,-2.510826 -2.5,-3.075571 v 6.14351 c 1.48,-0.557113 2.5,-1.71713 2.5,-3.067939 z"
       id="path473" />
  </g>
</svg>
