<svg width="24" height="24" viewBox="0 0 24 24" fill="none" xmlns="http://www.w3.org/2000/svg">
<path d="M8 13C8 12.3913 8.6213 12 9 12H15C15.5 12 16 12.3402 16 13C16 13.6598 15.5 14 15 14H9C8.6213 14 8 13.6087 8 13Z" fill="#7900E9"/>
<path d="M8 17C8 16.3913 8.6213 16 9 16H15C15.5 16 16 16.3402 16 17C16 17.6598 15.5 18 15 18H9C8.6213 18 8 17.6087 8 17Z" fill="#7900E9"/>
<path fill-rule="evenodd" clip-rule="evenodd" d="M19.9902 10C19.9967 10.0804 20 10.1614 20 10.2426V19C20 20.6569 18.6569 22 17 22H7C5.34315 22 4 20.6569 4 19V5C4 3.34315 5.34315 2 7 2H11.7574C11.8386 2 11.9196 2.0033 12 2.00982V2L12.0107 2.01071C12.7136 2.07025 13.3761 2.3761 13.8787 2.87868L19.1213 8.12132C19.6239 8.62391 19.9298 9.28645 19.9893 9.98929L20 10H19.9902ZM18 19C18 19.5523 17.5523 20 17 20H7C6.44772 20 6 19.5523 6 19V5C6 4.44772 6.44771 4 7 4H11.7574C11.8399 4 11.9213 4.01019 12 4.02988L12 7.99998C12 9.10455 12.8954 9.99998 14 9.99998L17.9701 9.99999C17.9898 10.0787 18 10.1601 18 10.2426V19ZM14 6.82843L15.1716 7.99998L14 7.99998V6.82843Z" fill="#7900E9"/>
<mask id="mask0_3035_103902" style="mask-type:alpha" maskUnits="userSpaceOnUse" x="4" y="2" width="16" height="20">
<path d="M8 12.9999C8 12.3913 8.6213 11.9999 9 11.9999H15C15.5 11.9999 16 12.3402 16 12.9999C16 13.6597 15.5 13.9999 15 13.9999H9C8.6213 13.9999 8 13.6086 8 12.9999Z" fill="white"/>
<path d="M8 16.9999C8 16.3913 8.6213 15.9999 9 15.9999H15C15.5 15.9999 16 16.3402 16 16.9999C16 17.6597 15.5 17.9999 15 17.9999H9C8.6213 17.9999 8 17.6086 8 16.9999Z" fill="white"/>
<path fill-rule="evenodd" clip-rule="evenodd" d="M19.9902 9.99994C19.9967 10.0804 20 10.1613 20 10.2426V18.9999C20 20.6568 18.6569 21.9999 17 21.9999H7C5.34315 21.9999 4 20.6568 4 18.9999V4.99994C4 3.34308 5.34315 1.99994 7 1.99994H11.7574C11.8386 1.99994 11.9196 2.00324 12 2.00976V1.99994L12.0107 2.01065C12.7136 2.07019 13.3761 2.37604 13.8787 2.87862L19.1213 8.12126C19.6239 8.62384 19.9298 9.28639 19.9893 9.98923L20 9.99994H19.9902ZM18 18.9999C18 19.5522 17.5523 19.9999 17 19.9999H7C6.44772 19.9999 6 19.5522 6 18.9999V4.99994C6 4.44765 6.44771 3.99994 7 3.99994H11.7574C11.8399 3.99994 11.9213 4.01013 12 4.02982V7.99992C12 9.10449 12.8954 9.99992 14 9.99992L17.9701 9.99993C17.9898 10.0786 18 10.1601 18 10.2426V18.9999ZM14 6.82837L15.1716 7.99992L14 7.99992V6.82837Z" fill="white"/>
</mask>
<g mask="url(#mask0_3035_103902)">
<rect width="24" height="24" fill="#7900E9"/>
</g>
</svg>
