<svg width="24" height="24" viewBox="0 0 24 24" fill="none" xmlns="http://www.w3.org/2000/svg">
<path d="M8 11.0001C8 10.3914 8.6213 10.0001 9 10.0001H15C15.5 10.0001 16 10.3403 16 11.0001C16 11.6598 15.5 12.0001 15 12.0001H9C8.6213 12.0001 8 11.6087 8 11.0001Z" fill="#979797"/>
<path d="M8 14.5001C8 13.8914 8.6213 13.5001 9 13.5001H15C15.5 13.5001 16 13.8403 16 14.5001C16 15.1598 15.5 15.5001 15 15.5001H9C8.6213 15.5001 8 15.1087 8 14.5001Z" fill="#979797"/>
<path d="M8 18.0001C8 17.3914 8.6213 17.0001 9 17.0001H15C15.5 17.0001 16 17.3403 16 18.0001C16 18.6598 15.5 19.0001 15 19.0001H9C8.6213 19.0001 8 18.6087 8 18.0001Z" fill="#979797"/>
<path fill-rule="evenodd" clip-rule="evenodd" d="M4 5.00006C4 3.39128 5.12857 1.99995 7.5 2.00007H19C19.3623 1.9952 20 2.23987 20 3.00007C20 3.76027 19.3623 4.00494 19 4.00007C18.3402 4.00007 18 4.82909 18 5.45659C18 6.0841 18.3402 7.00009 19 7.00009C19.3922 6.9967 19.9977 7.6172 20 8.00006V21.3479C20 21.6894 19.6733 22.0001 19.3143 22.0001H7.5C5.5 22.0001 4 20.0001 4 18.5001V5.00006ZM16.3786 4.00009L7.5 4.00007C6.62857 4.00005 6 4.60884 6 5.50009C6 6.39134 6.84023 7.00009 7.5 7.00009H16.3786C16.1392 6.61424 16 5.97227 16 5.50009C16 5.02792 16.1392 4.38594 16.3786 4.00009ZM7.5 9.00009C7.00423 9.00009 6.4053 8.86717 6 8.64004V18.5001C6 19.5001 6.98162 20.0001 7.5 20.0001H18V9.00009H7.5Z" fill="#979797"/>
<mask id="mask0_1_8015" style="mask-type:luminance" maskUnits="userSpaceOnUse" x="4" y="2" width="16" height="20">
<path d="M8 11.0001C8 10.3914 8.6213 10.0001 9 10.0001H15C15.5 10.0001 16 10.3403 16 11.0001C16 11.6598 15.5 12.0001 15 12.0001H9C8.6213 12.0001 8 11.6087 8 11.0001Z" fill="white"/>
<path d="M8 14.5001C8 13.8914 8.6213 13.5001 9 13.5001H15C15.5 13.5001 16 13.8403 16 14.5001C16 15.1598 15.5 15.5001 15 15.5001H9C8.6213 15.5001 8 15.1087 8 14.5001Z" fill="white"/>
<path d="M8 18.0001C8 17.3914 8.6213 17.0001 9 17.0001H15C15.5 17.0001 16 17.3403 16 18.0001C16 18.6598 15.5 19.0001 15 19.0001H9C8.6213 19.0001 8 18.6087 8 18.0001Z" fill="white"/>
<path fill-rule="evenodd" clip-rule="evenodd" d="M4 5.00006C4 3.39128 5.12857 1.99995 7.5 2.00007H19C19.3623 1.9952 20 2.23987 20 3.00007C20 3.76027 19.3623 4.00494 19 4.00007C18.3402 4.00007 18 4.82909 18 5.45659C18 6.0841 18.3402 7.00009 19 7.00009C19.3922 6.9967 19.9977 7.6172 20 8.00006V21.3479C20 21.6894 19.6733 22.0001 19.3143 22.0001H7.5C5.5 22.0001 4 20.0001 4 18.5001V5.00006ZM16.3786 4.00009L7.5 4.00007C6.62857 4.00005 6 4.60884 6 5.50009C6 6.39134 6.84023 7.00009 7.5 7.00009H16.3786C16.1392 6.61424 16 5.97227 16 5.50009C16 5.02792 16.1392 4.38594 16.3786 4.00009ZM7.5 9.00009C7.00423 9.00009 6.4053 8.86717 6 8.64004V18.5001C6 19.5001 6.98162 20.0001 7.5 20.0001H18V9.00009H7.5Z" fill="white"/>
</mask>
<g mask="url(#mask0_1_8015)">
<rect width="24" height="24" fill="#3A4956"/>
</g>
</svg>
