<svg width="24" height="24" viewBox="0 0 24 24" fill="none" xmlns="http://www.w3.org/2000/svg">
<path d="M12.0375 7.59814C10.2176 7.59814 9.38345 8.91872 9.23179 10.0479C9.21283 10.201 9.25075 10.335 9.34553 10.4498C9.44032 10.5647 9.59198 10.6221 9.72468 10.6221H10.3692C10.6157 10.6221 10.8242 10.4498 10.8621 10.201C10.938 9.76082 11.2034 9.24408 12.0375 9.24408C12.682 9.24408 12.9474 9.58858 13.0612 9.77996C13.2128 10.0862 13.1939 10.4115 13.0043 10.6603C12.8147 10.9283 12.6252 11.0623 12.4166 11.1962C11.8669 11.579 11.4119 12.0001 11.3171 13.1484C11.2981 13.2824 11.355 13.4355 11.4498 13.5312C11.5446 13.6269 11.6773 13.7034 11.8289 13.7034H12.4545C12.7199 13.7034 12.9285 13.4929 12.9474 13.2441C12.9853 12.823 13.0801 12.7465 13.3455 12.5551C13.6109 12.3637 13.9522 12.1149 14.3124 11.6364C14.8621 10.89 14.938 9.87566 14.5019 9.01441C14.047 8.15317 13.118 7.59814 12.0375 7.59814Z" fill="#7900E9"/>
<path d="M12.1133 16.3828C12.6473 16.3828 13.0801 15.9458 13.0801 15.4067C13.0801 14.8677 12.6473 14.4307 12.1133 14.4307C11.5793 14.4307 11.1465 14.8677 11.1465 15.4067C11.1465 15.9458 11.5793 16.3828 12.1133 16.3828Z" fill="#7900E9"/>
<path fill-rule="evenodd" clip-rule="evenodd" d="M16.8341 4.45933L20.872 11.5407C21.0427 11.8278 21.0427 12.1722 20.872 12.4785L16.8341 19.5407C16.6635 19.8278 16.3602 20 16.0379 20H7.96209C7.63981 20 7.33649 19.8278 7.16588 19.5407L3.12796 12.4785C2.95735 12.1914 2.95735 11.8278 3.12796 11.5407L7.16588 4.45933C7.33649 4.17225 7.63981 4 7.96209 4H16.0379C16.3602 4 16.6635 4.17225 16.8341 4.45933ZM8.49289 18.1244H15.5071L19.0142 12L15.5071 5.8756H8.49289L4.98578 12L8.49289 18.1244Z" fill="#7900E9"/>
<mask id="mask0_659_80407" style="mask-type:alpha" maskUnits="userSpaceOnUse" x="3" y="4" width="18" height="16">
<path d="M12.0375 7.59814C10.2176 7.59814 9.38345 8.91872 9.23179 10.0479C9.21283 10.201 9.25075 10.335 9.34554 10.4498C9.44032 10.5647 9.59198 10.6221 9.72468 10.6221H10.3692C10.6157 10.6221 10.8242 10.4498 10.8621 10.201C10.938 9.76082 11.2034 9.24408 12.0375 9.24408C12.682 9.24408 12.9474 9.58858 13.0612 9.77996C13.2128 10.0862 13.1939 10.4115 13.0043 10.6603C12.8147 10.9283 12.6252 11.0623 12.4166 11.1962C11.8669 11.579 11.4119 12.0001 11.3171 13.1484C11.2981 13.2824 11.355 13.4355 11.4498 13.5312C11.5446 13.6269 11.6773 13.7034 11.8289 13.7034H12.4545C12.7199 13.7034 12.9285 13.4929 12.9474 13.2441C12.9853 12.823 13.0801 12.7465 13.3455 12.5551C13.6109 12.3637 13.9522 12.1149 14.3124 11.6364C14.8621 10.89 14.938 9.87566 14.5019 9.01441C14.047 8.15317 13.118 7.59814 12.0375 7.59814Z" fill="white"/>
<path d="M12.1133 16.3828C12.6473 16.3828 13.0801 15.9458 13.0801 15.4067C13.0801 14.8677 12.6473 14.4307 12.1133 14.4307C11.5793 14.4307 11.1465 14.8677 11.1465 15.4067C11.1465 15.9458 11.5793 16.3828 12.1133 16.3828Z" fill="white"/>
<path fill-rule="evenodd" clip-rule="evenodd" d="M16.8341 4.45933L20.872 11.5407C21.0427 11.8278 21.0427 12.1722 20.872 12.4785L16.8341 19.5407C16.6635 19.8278 16.3602 20 16.0379 20H7.96209C7.63981 20 7.33649 19.8278 7.16588 19.5407L3.12796 12.4785C2.95734 12.1914 2.95734 11.8278 3.12796 11.5407L7.16588 4.45933C7.33649 4.17225 7.63981 4 7.96209 4H16.0379C16.3602 4 16.6635 4.17225 16.8341 4.45933ZM8.49289 18.1244H15.5071L19.0142 12L15.5071 5.8756L8.49289 5.8756L4.98578 12L8.49289 18.1244Z" fill="white"/>
</mask>
<g mask="url(#mask0_659_80407)">
<rect width="24" height="24" fill="#7900E9"/>
</g>
</svg>
