<?xml version="1.0" encoding="UTF-8" standalone="no"?>
<svg
   width="24"
   height="24"
   viewBox="0 0 24 24"
   fill="none"
   version="1.1"
   id="svg9"
   sodipodi:docname="nav-audio-icon.svg"
   inkscape:version="1.2 (1:1.2.1+202207142221+cd75a1ee6d)"
   xmlns:inkscape="http://www.inkscape.org/namespaces/inkscape"
   xmlns:sodipodi="http://sodipodi.sourceforge.net/DTD/sodipodi-0.dtd"
   xmlns="http://www.w3.org/2000/svg"
   xmlns:svg="http://www.w3.org/2000/svg">
  <defs
     id="defs13" />
  <sodipodi:namedview
     id="namedview11"
     pagecolor="#ffffff"
     bordercolor="#666666"
     borderopacity="1.0"
     inkscape:showpageshadow="2"
     inkscape:pageopacity="0.0"
     inkscape:pagecheckerboard="0"
     inkscape:deskcolor="#d1d1d1"
     showgrid="false"
     inkscape:zoom="35.416667"
     inkscape:cx="11.774118"
     inkscape:cy="12.014118"
     inkscape:window-width="1848"
     inkscape:window-height="1016"
     inkscape:window-x="72"
     inkscape:window-y="27"
     inkscape:window-maximized="1"
     inkscape:current-layer="svg9" />
  <path
     fill-rule="evenodd"
     clip-rule="evenodd"
     d="M13.392 8.2154V19.424C12.9052 20.9072 11.2436 22 9.268 22C6.9106 22 5 20.4442 5 18.525C5 16.6058 6.9106 15.05 9.268 15.05C10.0282 15.05 10.7416 15.2124 11.3592 15.4952V2H11.6664C11.8872 3.3962 12.8344 4.2784 13.9422 5.0154C15.2492 5.8854 16.4472 6.86 17.329 8.1802C18.8348 10.4342 18.7658 12.889 17.134 14.9534C17.0738 15.03 17.0038 15.0988 16.8642 15.252C17.7162 12.0636 16.351 9.3862 13.392 8.2154Z"
     fill="#722C9E"
     id="path2"
     style="fill:#7900e9;fill-opacity:1" />
  <mask
     id="mask0_470_56049"
     style="mask-type:alpha"
     maskUnits="userSpaceOnUse"
     x="5"
     y="2"
     width="14"
     height="20">
    <path
       fill-rule="evenodd"
       clip-rule="evenodd"
       d="M13.392 8.2154V19.424C12.9052 20.9072 11.2436 22 9.268 22C6.9106 22 5 20.4442 5 18.525C5 16.6058 6.9106 15.05 9.268 15.05C10.0282 15.05 10.7416 15.2124 11.3592 15.4952V2H11.6664C11.8872 3.3962 12.8344 4.2784 13.9422 5.0154C15.2492 5.8854 16.4472 6.86 17.329 8.1802C18.8348 10.4342 18.7658 12.889 17.134 14.9534C17.0738 15.03 17.0038 15.0988 16.8642 15.252C17.7162 12.0636 16.351 9.3862 13.392 8.2154Z"
       fill="white"
       id="path4" />
  </mask>
  <g
     mask="url(#mask0_470_56049)"
     id="g7" />
</svg>
