<?xml version="1.0" encoding="UTF-8" standalone="no"?>
<svg
   width="24"
   height="24"
   viewBox="0 0 24 24"
   fill="none"
   version="1.1"
   id="svg332"
   sodipodi:docname="pdf-icon-dark.svg"
   inkscape:version="1.2.2 (1:1.2.2+202212051550+b0a8486541)"
   xmlns:inkscape="http://www.inkscape.org/namespaces/inkscape"
   xmlns:sodipodi="http://sodipodi.sourceforge.net/DTD/sodipodi-0.dtd"
   xmlns="http://www.w3.org/2000/svg"
   xmlns:svg="http://www.w3.org/2000/svg">
  <defs
     id="defs336" />
  <sodipodi:namedview
     id="namedview334"
     pagecolor="#ffffff"
     bordercolor="#666666"
     borderopacity="1.0"
     inkscape:showpageshadow="2"
     inkscape:pageopacity="0.0"
     inkscape:pagecheckerboard="0"
     inkscape:deskcolor="#d1d1d1"
     showgrid="false"
     inkscape:zoom="31.583333"
     inkscape:cx="11.44591"
     inkscape:cy="12.015831"
     inkscape:window-width="1848"
     inkscape:window-height="1016"
     inkscape:window-x="72"
     inkscape:window-y="27"
     inkscape:window-maximized="1"
     inkscape:current-layer="g330" />
  <path
     d="M8 11C8 10.3913 8.6213 10 9 10H15C15.5 10 16 10.3402 16 11C16 11.6598 15.5 12 15 12H9C8.6213 12 8 11.6087 8 11Z"
     fill="#7900E9"
     id="path311" />
  <path
     d="M8 14.5C8 13.8913 8.6213 13.5 9 13.5H15C15.5 13.5 16 13.8402 16 14.5C16 15.1598 15.5 15.5 15 15.5H9C8.6213 15.5 8 15.1087 8 14.5Z"
     fill="#7900E9"
     id="path313" />
  <path
     d="M8 18C8 17.3913 8.6213 17 9 17H15C15.5 17 16 17.3402 16 18C16 18.6598 15.5 19 15 19H9C8.6213 19 8 18.6087 8 18Z"
     fill="#7900E9"
     id="path315" />
  <path
     fill-rule="evenodd"
     clip-rule="evenodd"
     d="M4 5C4 3.39122 5.12857 1.99989 7.5 2.00001H19C19.3623 1.99514 20 2.23981 20 3.00001C20 3.76021 19.3623 4.00488 19 4.00001C18.3402 4.00001 18 4.82903 18 5.45653C18 6.08404 18.3402 7.00003 19 7.00003C19.3922 6.99663 19.9977 7.61714 20 8V21.3479C20 21.6893 19.6733 22 19.3143 22H7.5C5.5 22 4 20 4 18.5V5ZM16.3786 4.00003L7.5 4.00001C6.62857 3.99999 6 4.60878 6 5.50003C6 6.39128 6.84023 7.00003 7.5 7.00003H16.3786C16.1392 6.61418 16 5.97221 16 5.50003C16 5.02785 16.1392 4.38588 16.3786 4.00003ZM7.5 9.00003C7.00423 9.00003 6.4053 8.86711 6 8.63998V18.5C6 19.5 6.98162 20 7.5 20H18V9.00003H7.5Z"
     fill="#7900E9"
     id="path317" />
  <mask
     id="mask0_3035_103906"
     style="mask-type:alpha"
     maskUnits="userSpaceOnUse"
     x="4"
     y="2"
     width="16"
     height="20">
    <path
       d="M8 11C8 10.3913 8.6213 10 9 10H15C15.5 10 16 10.3402 16 11C16 11.6598 15.5 12 15 12H9C8.6213 12 8 11.6087 8 11Z"
       fill="white"
       id="path319" />
    <path
       d="M8 14.5C8 13.8913 8.6213 13.5 9 13.5H15C15.5 13.5 16 13.8402 16 14.5C16 15.1598 15.5 15.5 15 15.5H9C8.6213 15.5 8 15.1087 8 14.5Z"
       fill="white"
       id="path321" />
    <path
       d="M8 18C8 17.3913 8.6213 17 9 17H15C15.5 17 16 17.3402 16 18C16 18.6598 15.5 19 15 19H9C8.6213 19 8 18.6087 8 18Z"
       fill="white"
       id="path323" />
    <path
       fill-rule="evenodd"
       clip-rule="evenodd"
       d="M4 5C4 3.39122 5.12857 1.99989 7.5 2.00001H19C19.3623 1.99514 20 2.23981 20 3.00001C20 3.76021 19.3623 4.00488 19 4.00001C18.3402 4.00001 18 4.82903 18 5.45653C18 6.08404 18.3402 7.00003 19 7.00003C19.3922 6.99663 19.9977 7.61714 20 8V21.3479C20 21.6893 19.6733 22 19.3143 22H7.5C5.5 22 4 20 4 18.5V5ZM16.3786 4.00003L7.5 4.00001C6.62857 3.99999 6 4.60878 6 5.50003C6 6.39128 6.84023 7.00003 7.5 7.00003H16.3786C16.1392 6.61418 16 5.97221 16 5.50003C16 5.02785 16.1392 4.38588 16.3786 4.00003ZM7.5 9.00003C7.00423 9.00003 6.4053 8.86711 6 8.63998V18.5C6 19.5 6.98162 20 7.5 20H18V9.00003H7.5Z"
       fill="white"
       id="path325" />
  </mask>
  <g
     mask="url(#mask0_3035_103906)"
     id="g330">
    <rect
       width="24"
       height="24"
       fill="#7900E9"
       id="rect328"
       style="fill:#3a4956;fill-opacity:1" />
  </g>
</svg>
