<?xml version="1.0" encoding="UTF-8" standalone="no"?>
<svg
   width="24"
   height="24"
   viewBox="0 0 24 24"
   fill="none"
   version="1.1"
   id="svg13"
   sodipodi:docname="prev-video.svg"
   inkscape:version="1.2.2 (1:1.2.2+202212051550+b0a8486541)"
   xmlns:inkscape="http://www.inkscape.org/namespaces/inkscape"
   xmlns:sodipodi="http://sodipodi.sourceforge.net/DTD/sodipodi-0.dtd"
   xmlns="http://www.w3.org/2000/svg"
   xmlns:svg="http://www.w3.org/2000/svg">
  <defs
     id="defs17" />
  <sodipodi:namedview
     id="namedview15"
     pagecolor="#ffffff"
     bordercolor="#666666"
     borderopacity="1.0"
     inkscape:showpageshadow="2"
     inkscape:pageopacity="0.0"
     inkscape:pagecheckerboard="0"
     inkscape:deskcolor="#d1d1d1"
     showgrid="false"
     inkscape:zoom="25.043365"
     inkscape:cx="6.8281558"
     inkscape:cy="14.754407"
     inkscape:window-width="1848"
     inkscape:window-height="1016"
     inkscape:window-x="72"
     inkscape:window-y="27"
     inkscape:window-maximized="1"
     inkscape:current-layer="svg13" />
  <g
     id="g1747"
     transform="matrix(-1,0,0,1,23.999484,0)">
    <path
       fill-rule="evenodd"
       clip-rule="evenodd"
       d="m 11.9997,23.4785 c 6.3393,0 11.4783,-5.139 11.4783,-11.4783 0,-6.33923 -5.139,-11.478227 -11.4783,-11.478227 -6.33922,0 -11.478216,5.138997 -11.478216,11.478227 0,6.3393 5.138996,11.4783 11.478216,11.4783 z"
       stroke="#7900E9"
       id="path2"
       style="stroke:#424b5a;stroke-opacity:1" />
    <path
       fill-rule="evenodd"
       clip-rule="evenodd"
       d="m 10.7276,7.59792 c -0.3577,-0.35773 -0.93769,-0.35773 -1.29542,0 -0.35746,0.35746 -0.35777,0.93691 -7.1e-4,1.29475 l 3.55933,3.56713 -3.55933,3.5671 c -0.35706,0.3578 -0.35675,0.9372 7.1e-4,1.2947 0.35773,0.3577 0.93772,0.3577 1.29542,0 l 4.8619,-4.8618 z"
       fill="#7900E9"
       id="path4"
       style="fill:#424b5a;fill-opacity:1" />
  </g>
  <mask
     id="mask0_3629_23766"
     style="mask-type:alpha"
     maskUnits="userSpaceOnUse"
     x="9"
     y="7"
     width="7"
     height="11">
    <path
       fill-rule="evenodd"
       clip-rule="evenodd"
       d="M10.7276 7.59792C10.3699 7.24019 9.78991 7.24019 9.43218 7.59792C9.07472 7.95538 9.07441 8.53483 9.43147 8.89267L12.9908 12.4598L9.43147 16.0269C9.07441 16.3847 9.07472 16.9641 9.43218 17.3216C9.78991 17.6793 10.3699 17.6793 10.7276 17.3216L15.5895 12.4598L10.7276 7.59792Z"
       fill="white"
       id="path6" />
  </mask>
  <g
     mask="url(#mask0_3629_23766)"
     id="g11" />
</svg>
