<?xml version="1.0" encoding="UTF-8" standalone="no"?>
<svg
   width="44"
   height="44"
   viewBox="0 0 44 44"
   fill="none"
   version="1.1"
   id="svg17"
   sodipodi:docname="un-mute.svg"
   inkscape:version="1.2 (1:1.2.1+202207142221+cd75a1ee6d)"
   xmlns:inkscape="http://www.inkscape.org/namespaces/inkscape"
   xmlns:sodipodi="http://sodipodi.sourceforge.net/DTD/sodipodi-0.dtd"
   xmlns="http://www.w3.org/2000/svg"
   xmlns:svg="http://www.w3.org/2000/svg">
  <defs
     id="defs21" />
  <sodipodi:namedview
     id="namedview19"
     pagecolor="#ffffff"
     bordercolor="#666666"
     borderopacity="1.0"
     inkscape:showpageshadow="2"
     inkscape:pageopacity="0.0"
     inkscape:pagecheckerboard="0"
     inkscape:deskcolor="#d1d1d1"
     showgrid="false"
     inkscape:zoom="13.356461"
     inkscape:cx="15.572987"
     inkscape:cy="24.594838"
     inkscape:window-width="1848"
     inkscape:window-height="1016"
     inkscape:window-x="72"
     inkscape:window-y="27"
     inkscape:window-maximized="1"
     inkscape:current-layer="svg17" />
  <mask
     id="mask0_2623_97372"
     maskUnits="userSpaceOnUse"
     x="12"
     y="15"
     width="21"
     height="17">
    <path
       fill-rule="evenodd"
       clip-rule="evenodd"
       d="m 22.9317,30.9463 -5.0947,-2.6784 -2.3623,-2e-4 c -1.4232,0 -2.5616,-1.1644 -2.5616,-2.6201 v -4.367 c 0,-1.4556 1.1384,-2.62 2.5616,-2.62 h 2.3623 l 5.0947,-2.6784 c 0.4557,-0.2331 0.9679,-0.2038 1.3948,0.0582 0.4271,0.291 0.6831,0.7279 0.6831,1.2517 v 12.3731 c 0,0.524 -0.2563,0.9899 -0.6831,1.2518 -0.2279,0.1457 -0.4838,0.2039 -0.7401,0.2039 -0.2278,0 -0.4553,-0.0582 -0.6547,-0.1746 z M 23.302,29.1704 V 17.758 l -4.5541,2.3871 -3e-4,6.638 z m -8.6813,-7.8896 v 4.367 c 0,0.4946 0.3699,0.8733 0.854,0.8733 h 1.5656 v -6.1139 h -1.5656 c -0.4838,0 -0.854,0.3785 -0.854,0.8736 z"
       fill="#ffffff"
       id="path8" />
    <path
       d="m 30.5881,20.9605 c 0.3133,-0.3493 0.854,-0.3493 1.1958,0 0.3413,0.3494 0.3413,0.8735 0.0281,1.2229 l -1.5368,1.5721 1.509,1.5718 c 0.3414,0.3203 0.3414,0.8734 0,1.2227 -0.1712,0.1746 -0.3987,0.262 -0.598,0.262 -0.1994,0 -0.4268,-0.0874 -0.5977,-0.262 l -1.5368,-1.572 -1.5371,1.572 c -0.1709,0.1746 -0.3983,0.262 -0.5977,0.262 -0.1993,0 -0.4272,-0.0874 -0.598,-0.262 -0.3414,-0.3202 -0.3414,-0.8735 0,-1.2227 l 1.5371,-1.572 -1.5371,-1.5721 c -0.3414,-0.3202 -0.3414,-0.8733 0,-1.2227 0.1172,-0.1309 0.2661,-0.2127 0.425,-0.2455 0.265,-0.0549 0.5568,0.027 0.7707,0.2455 l 1.5368,1.5721 z"
       fill="#ffffff"
       id="path10" />
  </mask>
  <g
     id="g458"
     transform="matrix(0.95454545,0,0,0.9550208,1.0000001,0.20026365)">
    <rect
       y="0.83740199"
       width="44"
       height="43.9781"
       rx="21.989"
       fill="#000000"
       fill-opacity="0.5"
       id="rect2"
       x="0" />
    <path
       fill-rule="evenodd"
       clip-rule="evenodd"
       d="m 22.9317,30.9463 -5.0947,-2.6784 -2.3623,-2e-4 c -1.4232,0 -2.5616,-1.1644 -2.5616,-2.6201 v -4.367 c 0,-1.4556 1.1384,-2.62 2.5616,-2.62 h 2.3623 l 5.0947,-2.6784 c 0.4557,-0.2331 0.9679,-0.2038 1.3948,0.0582 0.4271,0.291 0.6831,0.7279 0.6831,1.2517 v 12.3731 c 0,0.524 -0.2563,0.9899 -0.6831,1.2518 -0.2279,0.1457 -0.4838,0.2039 -0.7401,0.2039 -0.2278,0 -0.4553,-0.0582 -0.6547,-0.1746 z M 23.302,29.1704 V 17.758 l -4.5541,2.3871 -3e-4,6.638 z m -8.6813,-7.8896 v 4.367 c 0,0.4946 0.3699,0.8733 0.854,0.8733 h 1.5656 v -6.1139 h -1.5656 c -0.4838,0 -0.854,0.3785 -0.854,0.8736 z"
       fill="#722c9e"
       id="path4" />
    <path
       d="m 30.5881,20.9605 c 0.3133,-0.3493 0.854,-0.3493 1.1958,0 0.3413,0.3494 0.3413,0.8735 0.0281,1.2229 l -1.5368,1.5721 1.509,1.5718 c 0.3414,0.3203 0.3414,0.8734 0,1.2227 -0.1712,0.1746 -0.3987,0.262 -0.598,0.262 -0.1994,0 -0.4268,-0.0874 -0.5977,-0.262 l -1.5368,-1.572 -1.5371,1.572 c -0.1709,0.1746 -0.3983,0.262 -0.5977,0.262 -0.1993,0 -0.4272,-0.0874 -0.598,-0.262 -0.3414,-0.3202 -0.3414,-0.8735 0,-1.2227 l 1.5371,-1.572 -1.5371,-1.5721 c -0.3414,-0.3202 -0.3414,-0.8733 0,-1.2227 0.1172,-0.1309 0.2661,-0.2127 0.425,-0.2455 0.265,-0.0549 0.5568,0.027 0.7707,0.2455 l 1.5368,1.5721 z"
       fill="#722c9e"
       id="path6" />
    <g
       mask="url(#mask0_2623_97372)"
       id="g15">
      <rect
         x="11"
         y="12"
         width="22.956499"
         height="22.945101"
         fill="#f2f5f7"
         id="rect13" />
    </g>
  </g>
</svg>
