<svg width="54" height="54" viewBox="0 0 54 54" fill="none" xmlns="http://www.w3.org/2000/svg">
<path fill-rule="evenodd" clip-rule="evenodd" d="M26.9991 53.0875C41.4065 53.0875 53.086 41.408 53.086 27.0005C53.086 12.5931 41.4065 0.913574 26.9991 0.913574C12.5916 0.913574 0.912109 12.5931 0.912109 27.0005C0.912109 41.408 12.5916 53.0875 26.9991 53.0875Z" stroke="white"/>
<path fill-rule="evenodd" clip-rule="evenodd" d="M23.3441 16.2296C22.9535 15.839 22.3204 15.839 21.9298 16.2296L20.4007 17.7587C20.0104 18.149 20.0101 18.7815 20.3999 19.1722L29.2526 28.0442L20.3999 36.9162C20.0101 37.3069 20.0104 37.9394 20.4007 38.3297L21.9298 39.8588C22.3204 40.2494 22.9535 40.2494 23.3441 39.8588L35.1587 28.0442L23.3441 16.2296Z" fill="white"/>
<mask id="mask0_2621_95692" style="mask-type:alpha" maskUnits="userSpaceOnUse" x="20" y="15" width="16" height="26">
<path fill-rule="evenodd" clip-rule="evenodd" d="M23.3441 16.2296C22.9535 15.839 22.3204 15.839 21.9298 16.2296L20.4007 17.7587C20.0104 18.149 20.0101 18.7815 20.3999 19.1722L29.2526 28.0442L20.3999 36.9162C20.0101 37.3069 20.0104 37.9394 20.4007 38.3297L21.9298 39.8588C22.3204 40.2494 22.9535 40.2494 23.3441 39.8588L35.1587 28.0442L23.3441 16.2296Z" fill="white"/>
</mask>
<g mask="url(#mask0_2621_95692)">
<rect x="2.99902" y="3.00049" width="50.087" height="50.087" fill="white"/>
</g>
</svg>
