<svg width="24" height="24" viewBox="0 0 24 24" fill="none" xmlns="http://www.w3.org/2000/svg">
<path fill-rule="evenodd" clip-rule="evenodd" d="M11.9997 23.4785C18.339 23.4785 23.478 18.3395 23.478 12.0002C23.478 5.66097 18.339 0.521973 11.9997 0.521973C5.66048 0.521973 0.521484 5.66097 0.521484 12.0002C0.521484 18.3395 5.66048 23.4785 11.9997 23.4785Z" stroke="#7900E9"/>
<path fill-rule="evenodd" clip-rule="evenodd" d="M10.7276 7.59792C10.3699 7.24019 9.78991 7.24019 9.43218 7.59792C9.07472 7.95538 9.07441 8.53483 9.43147 8.89267L12.9908 12.4598L9.43147 16.0269C9.07441 16.3847 9.07472 16.9641 9.43218 17.3216C9.78991 17.6793 10.3699 17.6793 10.7276 17.3216L15.5895 12.4598L10.7276 7.59792Z" fill="#7900E9"/>
<mask id="mask0_3629_23766" style="mask-type:alpha" maskUnits="userSpaceOnUse" x="9" y="7" width="7" height="11">
<path fill-rule="evenodd" clip-rule="evenodd" d="M10.7276 7.59792C10.3699 7.24019 9.78991 7.24019 9.43218 7.59792C9.07472 7.95538 9.07441 8.53483 9.43147 8.89267L12.9908 12.4598L9.43147 16.0269C9.07441 16.3847 9.07472 16.9641 9.43218 17.3216C9.78991 17.6793 10.3699 17.6793 10.7276 17.3216L15.5895 12.4598L10.7276 7.59792Z" fill="white"/>
</mask>
<g mask="url(#mask0_3629_23766)">
<rect x="1.43945" y="1.44043" width="22.0383" height="22.0383" fill="#7900E9"/>
</g>
</svg>
