<svg width="24" height="24" viewBox="0 0 24 24" fill="none" xmlns="http://www.w3.org/2000/svg">
<path fill-rule="evenodd" clip-rule="evenodd" d="M11.9997 23.4785C18.339 23.4785 23.478 18.3395 23.478 12.0002C23.478 5.66097 18.339 0.521973 11.9997 0.521973C5.66048 0.521973 0.521484 5.66097 0.521484 12.0002C0.521484 18.3395 5.66048 23.4785 11.9997 23.4785Z" stroke="#7900E9"/>
<path fill-rule="evenodd" clip-rule="evenodd" d="M12.7294 7.59792C13.0871 7.24019 13.6671 7.24019 14.0249 7.59792C14.3823 7.95538 14.3826 8.53483 14.0256 8.89267L10.4662 12.4598L14.0256 16.0269C14.3826 16.3847 14.3823 16.9641 14.0249 17.3216C13.6671 17.6793 13.0871 17.6793 12.7294 17.3216L7.86756 12.4598L12.7294 7.59792Z" fill="#7900E9"/>
<mask id="mask0_3629_23757" style="mask-type:alpha" maskUnits="userSpaceOnUse" x="7" y="7" width="8" height="11">
<path fill-rule="evenodd" clip-rule="evenodd" d="M12.7294 7.59792C13.0871 7.24019 13.6671 7.24019 14.0249 7.59792C14.3823 7.95538 14.3826 8.53483 14.0256 8.89267L10.4662 12.4598L14.0256 16.0269C14.3826 16.3847 14.3823 16.9641 14.0249 17.3216C13.6671 17.6793 13.0871 17.6793 12.7294 17.3216L7.86756 12.4598L12.7294 7.59792Z" fill="white"/>
</mask>
<g mask="url(#mask0_3629_23757)">
<rect x="0.521484" y="1.44043" width="22.0383" height="22.0383" fill="#7900E9"/>
</g>
</svg>
