<?xml version="1.0" encoding="UTF-8" standalone="no"?>
<svg
   width="36"
   height="36"
   viewBox="0 0 36 36"
   fill="none"
   version="1.1"
   id="svg11"
   sodipodi:docname="arrow-right-squared.svg"
   inkscape:version="1.2 (1:1.2.1+202207142221+cd75a1ee6d)"
   xmlns:inkscape="http://www.inkscape.org/namespaces/inkscape"
   xmlns:sodipodi="http://sodipodi.sourceforge.net/DTD/sodipodi-0.dtd"
   xmlns="http://www.w3.org/2000/svg"
   xmlns:svg="http://www.w3.org/2000/svg">
  <defs
     id="defs15" />
  <sodipodi:namedview
     id="namedview13"
     pagecolor="#ffffff"
     bordercolor="#666666"
     borderopacity="1.0"
     inkscape:showpageshadow="2"
     inkscape:pageopacity="0.0"
     inkscape:pagecheckerboard="0"
     inkscape:deskcolor="#d1d1d1"
     showgrid="false"
     inkscape:zoom="16.695577"
     inkscape:cx="17.759195"
     inkscape:cy="19.076909"
     inkscape:window-width="1848"
     inkscape:window-height="1016"
     inkscape:window-x="72"
     inkscape:window-y="27"
     inkscape:window-maximized="1"
     inkscape:current-layer="svg11" />
  <rect
     style="fill:#ff0000;stroke-width:1.01316;opacity:0"
     id="rect350"
     width="36"
     height="36"
     x="0"
     y="0" />
  <path
     fill-rule="evenodd"
     clip-rule="evenodd"
     d="m 20.2135,9.89198 c 0.3895,-0.385 1.0163,-0.385 1.4058,0 l 0.6345,0.62702 c 0.3958,0.3911 0.3961,1.0301 7e-4,1.4217 l -5.961,5.9042 5.961,5.9042 c 0.3954,0.3916 0.3951,1.0306 -7e-4,1.4218 l -0.6345,0.627 c -0.3895,0.385 -1.0163,0.385 -1.4058,0 l -8.0471,-7.953 z"
     fill="#ffffff"
     id="path2" />
  <mask
     id="mask0_2624_100006"
     maskUnits="userSpaceOnUse"
     x="11"
     y="9"
     width="12"
     height="18">
    <path
       fill-rule="evenodd"
       clip-rule="evenodd"
       d="m 19.7135,9.89198 c 0.3895,-0.385 1.0163,-0.385 1.4058,0 l 0.6345,0.62702 c 0.3958,0.3911 0.3961,1.0301 7e-4,1.4217 l -5.961,5.9042 5.961,5.9042 c 0.3954,0.3916 0.3951,1.0306 -7e-4,1.4218 l -0.6345,0.627 c -0.3895,0.385 -1.0163,0.385 -1.4058,0 l -8.0471,-7.953 z"
       fill="#ffffff"
       id="path4" />
  </mask>
  <g
     mask="url(#mask0_2624_100006)"
     id="g9"
     transform="translate(0.5)">
    <rect
       y="0.54980499"
       width="35"
       height="34.590599"
       fill="#ffffff"
       id="rect7"
       x="0" />
  </g>
</svg>
