<svg width="24" height="24" viewBox="0 0 24 24" fill="none" xmlns="http://www.w3.org/2000/svg">
<rect width="24" height="24" rx="12" fill="white"/>
<path d="M4.71424 17.1442H19.2857V18.4299C19.2857 18.5435 19.2405 18.6525 19.1603 18.7328C19.0799 18.8132 18.9709 18.8583 18.8571 18.8583H5.14293C4.90616 18.8583 4.71439 18.6665 4.71439 18.4299L4.71424 17.1442ZM21 10.7156C21.0009 11.0135 20.8976 11.3023 20.7082 11.5323C20.5188 11.7622 20.2551 11.9191 19.9628 11.9757L19.3541 16.2868H4.64578L4.03727 11.9757C3.7168 11.9124 3.43219 11.7296 3.24162 11.4645C3.05104 11.1991 2.96853 10.8712 3.01084 10.5473C3.05329 10.2234 3.21742 9.92772 3.46972 9.7204C3.72218 9.51308 4.04417 9.40964 4.37 9.43102C4.696 9.45254 5.00153 9.59724 5.22469 9.83579C5.44785 10.0742 5.57177 10.389 5.57147 10.7156C5.57147 10.802 5.5628 10.8879 5.54576 10.9727L8.42582 12.6955L11.0915 8.19547C10.8501 7.95452 10.7144 7.62747 10.7143 7.28637C10.7141 6.94527 10.8495 6.61824 11.0906 6.37697C11.3319 6.13572 11.6589 6 12 6C12.3411 6 12.6682 6.13572 12.9094 6.37697C13.1505 6.61822 13.286 6.94524 13.2858 7.28637C13.2857 7.62747 13.1499 7.95451 12.9085 8.19547L15.5742 12.6955L18.4543 10.9727C18.4373 10.8879 18.4286 10.802 18.4286 10.7156C18.4286 10.2563 18.6736 9.83176 19.0715 9.60202C19.4693 9.37228 19.9593 9.37228 20.3571 9.60202C20.755 9.83176 21 10.2563 21 10.7156ZM4.2857 11.144C4.32023 11.1455 4.35476 11.1428 4.38869 11.1356C4.48226 11.1095 4.56596 11.0556 4.62859 10.9814C4.63038 10.9631 4.63621 10.9455 4.64578 10.9299C4.65221 10.9123 4.66416 10.8971 4.68001 10.8869C4.70452 10.8332 4.71618 10.7746 4.71439 10.7156C4.71439 10.5424 4.60991 10.3859 4.44982 10.3195C4.28958 10.2531 4.10528 10.2899 3.98271 10.4125C3.86015 10.535 3.82352 10.7193 3.88974 10.8794C3.95611 11.0397 4.11244 11.144 4.2857 11.144ZM11.5713 7.28697C11.5672 7.45886 11.6694 7.6155 11.8284 7.68098C11.9382 7.72672 12.0616 7.72672 12.1713 7.68098C12.3304 7.61551 12.4326 7.45887 12.4284 7.28697C12.4284 7.0502 12.2366 6.85828 11.9999 6.85828C11.7631 6.85828 11.5713 7.05021 11.5713 7.28697ZM20.1428 10.7153C20.1428 10.4787 19.9508 10.2866 19.7142 10.2866C19.4775 10.2866 19.2857 10.4787 19.2857 10.7153C19.2839 10.7743 19.2955 10.8329 19.3201 10.8866C19.3359 10.8968 19.3479 10.912 19.3543 10.9296C19.3639 10.9452 19.3697 10.9628 19.3715 10.9811C19.4341 11.0553 19.5177 11.1092 19.6112 11.1353C19.6452 11.1425 19.6797 11.1452 19.7142 11.1437C19.8278 11.1437 19.9369 11.0987 20.0174 11.0184C20.0978 10.938 20.1428 10.829 20.1428 10.7153Z" fill="#DC0F2E"/>
<mask id="mask0_3015_103153" style="mask-type:luminance" maskUnits="userSpaceOnUse" x="3" y="6" width="18" height="13">
<path d="M4.71424 17.1442H19.2857V18.4299C19.2857 18.5435 19.2405 18.6525 19.1603 18.7328C19.0799 18.8132 18.9709 18.8583 18.8571 18.8583H5.14293C4.90616 18.8583 4.71439 18.6665 4.71439 18.4299L4.71424 17.1442ZM21 10.7156C21.0009 11.0135 20.8976 11.3023 20.7082 11.5323C20.5188 11.7622 20.2551 11.9191 19.9628 11.9757L19.3541 16.2868H4.64578L4.03727 11.9757C3.7168 11.9124 3.43219 11.7296 3.24162 11.4645C3.05104 11.1991 2.96853 10.8712 3.01084 10.5473C3.05329 10.2234 3.21742 9.92772 3.46972 9.7204C3.72218 9.51308 4.04417 9.40964 4.37 9.43102C4.696 9.45254 5.00153 9.59724 5.22469 9.83579C5.44785 10.0742 5.57177 10.389 5.57147 10.7156C5.57147 10.802 5.5628 10.8879 5.54576 10.9727L8.42582 12.6955L11.0915 8.19547C10.8501 7.95452 10.7144 7.62747 10.7143 7.28637C10.7141 6.94527 10.8495 6.61824 11.0906 6.37697C11.3319 6.13572 11.6589 6 12 6C12.3411 6 12.6682 6.13572 12.9094 6.37697C13.1505 6.61822 13.286 6.94524 13.2858 7.28637C13.2857 7.62747 13.1499 7.95451 12.9085 8.19547L15.5742 12.6955L18.4543 10.9727C18.4373 10.8879 18.4286 10.802 18.4286 10.7156C18.4286 10.2563 18.6736 9.83176 19.0715 9.60202C19.4693 9.37228 19.9593 9.37228 20.3571 9.60202C20.755 9.83176 21 10.2563 21 10.7156ZM4.2857 11.144C4.32023 11.1455 4.35476 11.1428 4.38869 11.1356C4.48226 11.1095 4.56596 11.0556 4.62859 10.9814C4.63038 10.9631 4.63621 10.9455 4.64578 10.9299C4.65221 10.9123 4.66416 10.8971 4.68001 10.8869C4.70452 10.8332 4.71618 10.7746 4.71439 10.7156C4.71439 10.5424 4.60991 10.3859 4.44982 10.3195C4.28958 10.2531 4.10528 10.2899 3.98271 10.4125C3.86015 10.535 3.82352 10.7193 3.88974 10.8794C3.95611 11.0397 4.11244 11.144 4.2857 11.144ZM11.5713 7.28697C11.5672 7.45886 11.6694 7.6155 11.8284 7.68098C11.9382 7.72672 12.0616 7.72672 12.1713 7.68098C12.3304 7.61551 12.4326 7.45887 12.4284 7.28697C12.4284 7.0502 12.2366 6.85828 11.9999 6.85828C11.7631 6.85828 11.5713 7.05021 11.5713 7.28697ZM20.1428 10.7153C20.1428 10.4787 19.9508 10.2866 19.7142 10.2866C19.4775 10.2866 19.2857 10.4787 19.2857 10.7153C19.2839 10.7743 19.2955 10.8329 19.3201 10.8866C19.3359 10.8968 19.3479 10.912 19.3543 10.9296C19.3639 10.9452 19.3697 10.9628 19.3715 10.9811C19.4341 11.0553 19.5177 11.1092 19.6112 11.1353C19.6452 11.1425 19.6797 11.1452 19.7142 11.1437C19.8278 11.1437 19.9369 11.0987 20.0174 11.0184C20.0978 10.938 20.1428 10.829 20.1428 10.7153Z" fill="white"/>
</mask>
<g mask="url(#mask0_3015_103153)">
<rect width="24" height="24" fill="#DC0F2E"/>
</g>
</svg>
