<?xml version="1.0" encoding="UTF-8" standalone="no"?>
<svg
   width="64"
   height="64"
   viewBox="0 0 64 64"
   fill="none"
   version="1.1"
   id="svg12"
   sodipodi:docname="Group 307.svg"
   inkscape:version="1.2.2 (1:1.2.2+202212051550+b0a8486541)"
   xmlns:inkscape="http://www.inkscape.org/namespaces/inkscape"
   xmlns:sodipodi="http://sodipodi.sourceforge.net/DTD/sodipodi-0.dtd"
   xmlns="http://www.w3.org/2000/svg"
   xmlns:svg="http://www.w3.org/2000/svg">
  <defs
     id="defs16" />
  <sodipodi:namedview
     id="namedview14"
     pagecolor="#ffffff"
     bordercolor="#666666"
     borderopacity="1.0"
     inkscape:showpageshadow="2"
     inkscape:pageopacity="0.0"
     inkscape:pagecheckerboard="0"
     inkscape:deskcolor="#d1d1d1"
     showgrid="false"
     inkscape:zoom="4.187398"
     inkscape:cx="-45.732458"
     inkscape:cy="41.195034"
     inkscape:window-width="1848"
     inkscape:window-height="1016"
     inkscape:window-x="72"
     inkscape:window-y="27"
     inkscape:window-maximized="1"
     inkscape:current-layer="svg12" />
  <rect
     width="64"
     height="64"
     rx="4"
     fill="white"
     id="rect2" />
  <path
     fill-rule="evenodd"
     clip-rule="evenodd"
     d="M 60.235437,0 H 3.7648469 C 1.6856569,0 1.3693807e-4,2.0467 1.3693807e-4,4.57143 V 59.4286 C 1.3693807e-4,61.9533 1.6856569,64 3.7648469,64 H 60.235437 c 2.0792,0 3.7647,-2.0467 3.7647,-4.5714 V 4.57143 C 64.000137,2.0467 62.314637,0 60.235437,0 Z M 3.7648469,59.4286 V 4.57143 H 60.235437 V 59.4286 Z"
     fill="#a1aeb7"
     id="path4" />
  <g
     id="g302"
     transform="matrix(1,0,0,0.83429684,0,9.0900043)">
    <path
       fill-rule="evenodd"
       clip-rule="evenodd"
       d="m 10.3535,18.8571 c 0,4.7339 3.1604,8.5715 7.0588,8.5715 3.8985,0 7.0589,-3.8376 7.0589,-8.5715 0,-4.7338 -3.1604,-8.5714 -7.0589,-8.5714 -3.8984,0 -7.0588,3.8376 -7.0588,8.5714 z m 10.353,0 c 0,2.2092 -1.4749,4 -3.2942,4 -1.8193,0 -3.2941,-1.7908 -3.2941,-4 0,-2.2091 1.4748,-4 3.2941,-4 1.8193,0 3.2942,1.7909 3.2942,4 z"
       fill="#a1aeb7"
       id="path6" />
    <path
       d="m 13.5611,54.1946 c -0.7382,0.8888 -1.9301,0.8826 -2.662,-0.0139 -0.7319,-0.8965 -0.7268,-2.3437 0.0115,-3.2325 l 15.4818,-18.6374 8.7259,9.2162 c 0.7844,0.8284 0.8672,2.2722 0.1849,3.2247 -0.6823,0.9524 -1.8712,1.053 -2.6556,0.2245 l -6.0878,-6.4298 z"
       fill="#a1aeb7"
       id="path8" />
    <path
       d="m 27.6841,54.1876 c -0.735,0.8927 -1.9269,0.8927 -2.662,10e-5 -0.7351,-0.8925 -0.7352,-2.3398 -10e-5,-3.2324 l 24.7742,-30.0858 13.563,14.4508 c 0.7815,0.8325 0.8591,2.2767 0.1735,3.2256 -0.6857,0.9489 -1.875,1.0431 -2.6564,0.2106 L 49.9645,27.1305 Z"
       fill="#a1aeb7"
       id="path10" />
  </g>
</svg>
