<?xml version="1.0" encoding="UTF-8" standalone="no"?>
<!-- Created with Inkscape (http://www.inkscape.org/) -->

<svg
   width="16"
   height="16"
   viewBox="0 0 16 16"
   version="1.1"
   id="svg5"
   inkscape:version="1.1.2 (1:1.1+202202050950+0a00cf5339)"
   sodipodi:docname="multiangle.svg"
   xmlns:inkscape="http://www.inkscape.org/namespaces/inkscape"
   xmlns:sodipodi="http://sodipodi.sourceforge.net/DTD/sodipodi-0.dtd"
   xmlns="http://www.w3.org/2000/svg"
   xmlns:svg="http://www.w3.org/2000/svg">
  <sodipodi:namedview
     id="namedview7"
     pagecolor="#ffffff"
     bordercolor="#666666"
     borderopacity="1.0"
     inkscape:pageshadow="2"
     inkscape:pageopacity="0.0"
     inkscape:pagecheckerboard="0"
     inkscape:document-units="px"
     showgrid="false"
     inkscape:zoom="50.4375"
     inkscape:cx="7.9900867"
     inkscape:cy="8"
     inkscape:window-width="1848"
     inkscape:window-height="1016"
     inkscape:window-x="72"
     inkscape:window-y="27"
     inkscape:window-maximized="1"
     inkscape:current-layer="layer1" />
  <defs
     id="defs2" />
  <g
     inkscape:label="Layer 1"
     inkscape:groupmode="layer"
     id="layer1">
    <path
       style="fill:#ffffff;stroke-width:0.0305966"
       d="m 12.86938,15.010437 c -1.405143,-0.415753 -2.586571,-0.766835 -2.625389,-0.780182 -0.09112,-0.03133 -0.173371,-0.201946 -0.14735,-0.305629 0.01089,-0.04338 0.04616,-0.103344 0.07838,-0.133264 0.03222,-0.02991 0.355614,-0.217727 0.71865,-0.417358 0.363032,-0.199632 0.660059,-0.371796 0.660059,-0.382588 0,-0.01076 -0.595645,-0.61515 -1.32366,-1.343018 l -1.3236586,-1.323397 -1.9295793,0.0079 -1.9295792,0.0078 0.2082121,0.719017 c 0.2073009,0.715878 0.2361386,0.872265 0.1801372,0.976903 -0.03916,0.07317 -0.1966593,0.135894 -0.2853418,0.113636 -0.1340877,-0.03365 -4.84064183,-2.6209565 -4.90957979,-2.6989112 -0.0878967,-0.099398 -0.0878967,-0.2335416 0,-0.3306616 0.037861,-0.041834 1.14966339,-0.6648513 2.47066669,-1.3844834 1.7510049,-0.9538807 2.428541,-1.3084713 2.500425,-1.3086055 0.1400983,-2.741e-4 0.253259,0.1136381 0.253259,0.2549132 0,0.060393 -0.09486,0.4366251 -0.2107996,0.8360701 L 5.0434329,8.2449041 H 6.6463711 8.2493116 V 6.6656165 c 0,-1.4890876 -0.00307,-1.5784776 -0.053545,-1.565108 C 8.1663166,5.1082985 7.8157114,5.2090749 7.416645,5.3244381 6.6999857,5.5316093 6.6897732,5.5335716 6.5859002,5.4840379 6.5120956,5.4488426 6.4699215,5.4011234 6.4444728,5.3240142 6.4005059,5.1907953 6.2404877,5.5061718 7.8324987,2.588401 8.5153904,1.3368265 9.0985081,0.29430661 9.1283117,0.27168956 c 0.077424,-0.058746 0.2654513,-0.0529326 0.3389225,0.0104789 0.1008377,0.0870315 2.6984268,4.87584194 2.6984268,4.97470884 0,0.1046576 -0.14902,0.2649386 -0.246326,0.2649386 -0.0371,0 -0.372043,-0.08846 -0.744318,-0.1965777 C 10.802741,5.2171207 10.460289,5.1192487 10.414013,5.1077459 l -0.08414,-0.020916 v 1.8621857 1.862182 l 1.357645,1.3573884 1.357645,1.357387 0.375026,-0.679253 c 0.206266,-0.373588 0.403376,-0.70566 0.438021,-0.737937 0.07161,-0.06671 0.253905,-0.07749 0.32947,-0.01947 0.0267,0.0205 0.06309,0.06481 0.08086,0.09847 0.01776,0.03365 0.379434,1.242065 0.803693,2.685353 0.523,1.779186 0.76531,2.648353 0.752525,2.699293 -0.03124,0.124484 -0.136743,0.199537 -0.276306,0.19657 -0.06835,-0.0014 -1.273929,-0.342804 -2.679073,-0.758557 z"
       id="path39" />
  </g>
</svg>
