<svg width="24" height="24" viewBox="0 0 24 24" fill="none" xmlns="http://www.w3.org/2000/svg">
<path fill-rule="evenodd" clip-rule="evenodd" d="M18 4V13C18 13.55 17.55 14 17 14H7L4.41025 16.5897C3.63381 17.3662 3 17.1019 3 15.9941V4C3 3.45 3.45 3 4 3H17C17.55 3 18 3.45 18 4ZM10 18C9.44772 18 9 17.5523 9 17C9 16.4477 9.44772 16 10 16H17.4142L20 18.5858V6C20 5.44772 20.4477 5 21 5C21.5523 5 22 5.44772 22 6V18.5858C22 19.1162 21.7893 19.6249 21.4142 20C20.6332 20.781 19.3668 20.781 18.5858 20L16.5858 18H10ZM16 12H6.17157L5 13.1716V5H16V12Z" fill="#7900E9"/>
<mask id="mask0_687_84116" style="mask-type:alpha" maskUnits="userSpaceOnUse" x="3" y="3" width="19" height="18">
<path fill-rule="evenodd" clip-rule="evenodd" d="M18 4V13C18 13.55 17.55 14 17 14H7L4.41025 16.5897C3.63381 17.3662 3 17.1019 3 15.9941V4C3 3.45 3.45 3 4 3H17C17.55 3 18 3.45 18 4ZM10 18C9.44772 18 9 17.5523 9 17C9 16.4477 9.44772 16 10 16H17.4142L20 18.5858V6C20 5.44772 20.4477 5 21 5C21.5523 5 22 5.44772 22 6V18.5858C22 19.1162 21.7893 19.6249 21.4142 20C20.6332 20.781 19.3668 20.781 18.5858 20L16.5858 18H10ZM16 12H6.17157L5 13.1716V5H16V12Z" fill="white"/>
</mask>
<g mask="url(#mask0_687_84116)">
<rect width="24" height="24" fill="#7900E9"/>
</g>
<path fill-rule="evenodd" clip-rule="evenodd" d="M18 4V13C18 13.55 17.55 14 17 14H7L4.41025 16.5897C3.63381 17.3662 3 17.1019 3 15.9941V4C3 3.45 3.45 3 4 3H17C17.55 3 18 3.45 18 4ZM10 18C9.44772 18 9 17.5523 9 17C9 16.4477 9.44772 16 10 16H17.4142L20 18.5858V6C20 5.44772 20.4477 5 21 5C21.5523 5 22 5.44772 22 6V18.5858C22 19.1162 21.7893 19.6249 21.4142 20C20.6332 20.781 19.3668 20.781 18.5858 20L16.5858 18H10ZM16 12H6.17157L5 13.1716V5H16V12Z" fill="#7900E9"/>
<mask id="mask1_687_84116" style="mask-type:alpha" maskUnits="userSpaceOnUse" x="3" y="3" width="19" height="18">
<path fill-rule="evenodd" clip-rule="evenodd" d="M18 4V13C18 13.55 17.55 14 17 14H7L4.41025 16.5897C3.63381 17.3662 3 17.1019 3 15.9941V4C3 3.45 3.45 3 4 3H17C17.55 3 18 3.45 18 4ZM10 18C9.44772 18 9 17.5523 9 17C9 16.4477 9.44772 16 10 16H17.4142L20 18.5858V6C20 5.44772 20.4477 5 21 5C21.5523 5 22 5.44772 22 6V18.5858C22 19.1162 21.7893 19.6249 21.4142 20C20.6332 20.781 19.3668 20.781 18.5858 20L16.5858 18H10ZM16 12H6.17157L5 13.1716V5H16V12Z" fill="white"/>
</mask>
<g mask="url(#mask1_687_84116)">
<rect width="24" height="24" fill="#7900E9"/>
</g>
</svg>
