<?xml version="1.0" encoding="UTF-8" standalone="no"?>
<svg
   width="24"
   height="24"
   viewBox="0 0 24 24"
   fill="none"
   version="1.1"
   id="svg13"
   sodipodi:docname="next-video.svg"
   inkscape:version="1.2.2 (1:1.2.2+202212051550+b0a8486541)"
   xmlns:inkscape="http://www.inkscape.org/namespaces/inkscape"
   xmlns:sodipodi="http://sodipodi.sourceforge.net/DTD/sodipodi-0.dtd"
   xmlns="http://www.w3.org/2000/svg"
   xmlns:svg="http://www.w3.org/2000/svg">
  <defs
     id="defs17" />
  <sodipodi:namedview
     id="namedview15"
     pagecolor="#ffffff"
     bordercolor="#666666"
     borderopacity="1.0"
     inkscape:showpageshadow="2"
     inkscape:pageopacity="0.0"
     inkscape:pagecheckerboard="0"
     inkscape:deskcolor="#d1d1d1"
     showgrid="false"
     inkscape:zoom="25.043365"
     inkscape:cx="6.8281558"
     inkscape:cy="14.754407"
     inkscape:window-width="1848"
     inkscape:window-height="1016"
     inkscape:window-x="72"
     inkscape:window-y="27"
     inkscape:window-maximized="1"
     inkscape:current-layer="svg13" />
  <g
     id="g1747">
    <path
       fill-rule="evenodd"
       clip-rule="evenodd"
       d="M11.9997 23.4785C18.339 23.4785 23.478 18.3395 23.478 12.0002C23.478 5.66097 18.339 0.521973 11.9997 0.521973C5.66048 0.521973 0.521484 5.66097 0.521484 12.0002C0.521484 18.3395 5.66048 23.4785 11.9997 23.4785Z"
       stroke="#7900E9"
       id="path2"
       style="stroke:#424b5a;stroke-opacity:1" />
    <path
       fill-rule="evenodd"
       clip-rule="evenodd"
       d="M10.7276 7.59792C10.3699 7.24019 9.78991 7.24019 9.43218 7.59792C9.07472 7.95538 9.07441 8.53483 9.43147 8.89267L12.9908 12.4598L9.43147 16.0269C9.07441 16.3847 9.07472 16.9641 9.43218 17.3216C9.78991 17.6793 10.3699 17.6793 10.7276 17.3216L15.5895 12.4598L10.7276 7.59792Z"
       fill="#7900E9"
       id="path4"
       style="fill:#424b5a;fill-opacity:1" />
  </g>
  <mask
     id="mask0_3629_23766"
     style="mask-type:alpha"
     maskUnits="userSpaceOnUse"
     x="9"
     y="7"
     width="7"
     height="11">
    <path
       fill-rule="evenodd"
       clip-rule="evenodd"
       d="M10.7276 7.59792C10.3699 7.24019 9.78991 7.24019 9.43218 7.59792C9.07472 7.95538 9.07441 8.53483 9.43147 8.89267L12.9908 12.4598L9.43147 16.0269C9.07441 16.3847 9.07472 16.9641 9.43218 17.3216C9.78991 17.6793 10.3699 17.6793 10.7276 17.3216L15.5895 12.4598L10.7276 7.59792Z"
       fill="white"
       id="path6" />
  </mask>
  <g
     mask="url(#mask0_3629_23766)"
     id="g11" />
</svg>
